<svg xmlns="http://www.w3.org/2000/svg" width="362" height="80" viewBox="0 0 362 80" fill="none"><path d="M282.887 33.8385C283.884 33.8215 284.879 33.9439 285.843 34.202C286.569 34.3766 287.245 34.7166 287.818 35.1955C288.038 35.3866 288.215 35.6229 288.337 35.8884C288.458 36.1539 288.521 36.4423 288.521 36.7342C288.519 37.1346 288.392 37.5245 288.157 37.8489C288.041 38.0163 287.885 38.1518 287.703 38.2428C287.521 38.3339 287.319 38.3776 287.115 38.3699C286.847 38.3764 286.579 38.3311 286.328 38.2366C286.126 38.1526 285.938 38.0382 285.77 37.8973C285.361 37.5295 284.85 37.2932 284.304 37.2189C284.004 37.1675 283.7 37.1352 283.396 37.1219C282.491 37.0948 281.597 37.3215 280.815 37.7762C280.12 38.2038 279.558 38.8163 279.191 39.5452C278.796 40.3468 278.601 41.2323 278.622 42.1259C278.604 43.0088 278.804 43.8825 279.203 44.6702C279.569 45.3991 280.126 46.0147 280.815 46.4513C281.522 46.8939 282.343 47.1213 283.177 47.1056C283.607 47.1091 284.037 47.0767 284.462 47.0086C284.772 46.9649 285.074 46.8751 285.358 46.7421C285.62 46.5952 285.867 46.4249 286.097 46.2332C286.39 46.0374 286.739 45.9437 287.091 45.9666C287.317 45.9508 287.545 45.9874 287.755 46.0735C287.965 46.1597 288.152 46.2931 288.303 46.4634C288.585 46.8023 288.732 47.2341 288.714 47.675C288.697 47.9524 288.612 48.2212 288.466 48.4578C288.32 48.6944 288.118 48.8916 287.878 49.032C287.216 49.4904 286.478 49.8269 285.698 50.0255C284.736 50.2744 283.746 50.3966 282.753 50.389C281.318 50.422 279.902 50.0482 278.67 49.3107C277.525 48.5857 276.603 47.5584 276.005 46.3422C275.371 45.0323 275.052 43.5928 275.072 42.138C275.037 40.6436 275.378 39.1644 276.065 37.8368C276.702 36.622 277.662 35.6071 278.84 34.9047C280.066 34.1863 281.466 33.8175 282.887 33.8385Z" fill="#F6871F"></path><path d="M295.111 48.2687C295.117 48.5088 295.074 48.7476 294.984 48.9705C294.895 49.1934 294.761 49.3957 294.59 49.5651C294.42 49.7343 294.218 49.8675 293.995 49.957C293.772 50.0465 293.534 50.0904 293.294 50.0861C293.067 50.0845 292.843 50.0376 292.635 49.9482C292.427 49.8587 292.239 49.7284 292.082 49.5651C291.916 49.3935 291.785 49.1905 291.698 48.968C291.61 48.7454 291.568 48.5077 291.573 48.2687V29.8523C291.565 29.6118 291.607 29.3721 291.696 29.1488C291.786 28.9255 291.922 28.7235 292.094 28.5559C292.263 28.3844 292.465 28.2496 292.688 28.1599C292.911 28.0703 293.15 28.0277 293.391 28.0349C293.618 28.0321 293.843 28.0771 294.052 28.1668C294.261 28.2566 294.448 28.3891 294.602 28.5559C294.769 28.7269 294.899 28.93 294.984 29.1529C295.07 29.3758 295.109 29.6138 295.099 29.8523L295.111 48.2687Z" fill="#F6871F"></path><path d="M311.165 34.1414C311.404 34.1344 311.641 34.1771 311.862 34.2668C312.083 34.3565 312.283 34.4912 312.449 34.6624C312.78 35.0117 312.959 35.4779 312.946 35.9588V43.5313C313.043 45.3657 312.412 47.1641 311.189 48.5352C309.773 49.7256 307.981 50.3783 306.131 50.3783C304.28 50.3783 302.489 49.7256 301.073 48.5352C299.859 47.1595 299.233 45.3632 299.328 43.5313V35.9588C299.321 35.7196 299.363 35.4815 299.45 35.2588C299.538 35.036 299.669 34.8332 299.837 34.6624C300.18 34.3278 300.641 34.1407 301.121 34.1407C301.601 34.1407 302.061 34.3278 302.405 34.6624C302.736 35.0117 302.915 35.4779 302.902 35.9588V43.5313C302.827 44.4978 303.116 45.4575 303.714 46.2211C304.03 46.5344 304.41 46.7757 304.829 46.9283C305.247 47.081 305.693 47.1414 306.137 47.1055C306.581 47.1382 307.026 47.0763 307.444 46.9238C307.861 46.7713 308.242 46.5318 308.56 46.2211C309.153 45.4558 309.439 44.4963 309.36 43.5313V35.9588C309.353 35.7196 309.395 35.4815 309.482 35.2588C309.57 35.036 309.701 34.8332 309.869 34.6624C310.035 34.4884 310.237 34.352 310.461 34.2622C310.684 34.1724 310.924 34.1312 311.165 34.1414Z" fill="#F6871F"></path><path d="M325.075 33.8384C326.399 33.819 327.7 34.1853 328.819 34.8926C329.93 35.6198 330.836 36.6213 331.448 37.8004C332.114 39.1304 332.447 40.6023 332.417 42.0895C332.446 43.5843 332.114 45.0641 331.448 46.4028C330.849 47.5829 329.956 48.5886 328.855 49.3228C327.773 50.0219 326.509 50.3884 325.22 50.3769C324.46 50.3862 323.704 50.2548 322.991 49.9892C322.334 49.7583 321.717 49.4273 321.161 49.0078C320.697 48.6698 320.288 48.261 319.95 47.7962C319.706 47.5036 319.554 47.1452 319.514 46.7663L320.434 46.3786V48.62C320.441 48.8582 320.401 49.0954 320.316 49.3179C320.23 49.5404 320.102 49.7438 319.938 49.9165C319.771 50.0876 319.571 50.2223 319.35 50.312C319.129 50.4017 318.892 50.4444 318.653 50.4374C318.413 50.448 318.173 50.408 317.949 50.3201C317.725 50.2322 317.522 50.0983 317.353 49.927C317.184 49.7557 317.053 49.5509 316.968 49.3258C316.883 49.1007 316.846 48.8602 316.86 48.62V29.8523C316.852 29.6129 316.893 29.3744 316.981 29.1515C317.068 28.9286 317.2 28.7259 317.369 28.5559C317.534 28.3835 317.734 28.248 317.956 28.1582C318.177 28.0684 318.415 28.0264 318.653 28.0349C318.892 28.0279 319.129 28.0706 319.35 28.1603C319.571 28.25 319.771 28.3847 319.938 28.5559C320.102 28.7285 320.23 28.9319 320.316 29.1544C320.401 29.3769 320.441 29.6141 320.434 29.8523V37.4127L319.938 37.1461C319.973 36.7994 320.117 36.4728 320.35 36.2132C320.673 35.7956 321.052 35.4246 321.476 35.1106C321.979 34.7227 322.539 34.416 323.136 34.2019C323.755 33.9637 324.412 33.8405 325.075 33.8384ZM324.639 37.1219C323.823 37.1029 323.021 37.331 322.337 37.7762C321.679 38.2187 321.152 38.8296 320.81 39.5451C320.427 40.3378 320.236 41.2094 320.253 42.0895C320.238 42.9733 320.428 43.8486 320.81 44.646C321.144 45.3761 321.672 46.0006 322.337 46.4513C323.021 46.8964 323.823 47.1245 324.639 47.1055C325.447 47.1234 326.241 46.8952 326.917 46.4513C327.575 45.9966 328.098 45.373 328.431 44.646C328.807 43.8467 328.998 42.9727 328.988 42.0895C328.999 41.2099 328.808 40.3397 328.431 39.5451C328.09 38.8327 327.568 38.2225 326.917 37.7762C326.241 37.3322 325.447 37.104 324.639 37.1219Z" fill="#F6871F"></path><path d="M268.347 59.7668C273.652 68.9205 282.37 75.5982 292.589 78.337C302.809 81.0758 313.697 79.6525 322.869 74.3788C330.085 70.2018 335.784 63.8366 339.141 56.2047C339.256 56.0798 339.362 55.9461 339.456 55.8049L360.72 12.7929C361.207 11.8124 361.445 10.7265 361.412 9.63194C361.378 8.53736 361.074 7.4681 360.527 6.51936C359.98 5.57063 359.207 4.77188 358.277 4.19432C357.347 3.61676 356.288 3.27829 355.195 3.20908L307.324 0.155851C307.142 0.155851 306.985 0.228544 306.815 0.228544C298.544 -0.668217 290.202 1.08846 282.995 5.24461C278.451 7.86066 274.467 11.3467 271.272 15.5034C268.076 19.6601 265.731 24.4059 264.37 29.4696C263.01 34.5332 262.661 39.8153 263.343 45.014C264.026 50.2126 265.726 55.2258 268.347 59.7668ZM333.144 22.3646C342.534 38.6243 336.173 59.8637 319.913 69.2537C312.108 73.6929 302.864 74.8646 294.199 72.5129C285.534 70.1612 278.151 64.4771 273.661 56.7013C269.172 48.9255 267.94 39.6894 270.236 31.0091C272.532 22.3288 278.168 14.9092 285.915 10.3697C302.175 0.979733 323.754 6.0927 333.144 22.3646Z" fill="#2DBDB8"></path><path d="M5.53742 65.6794C5.67405 65.6845 5.80378 65.7407 5.90091 65.837C5.95196 65.8876 5.99221 65.9481 6.01928 66.0147C6.04635 66.0814 6.05966 66.1528 6.0584 66.2247C6.0695 66.2807 6.0695 66.3383 6.0584 66.3943C6.04437 66.451 6.0197 66.5044 5.98571 66.5518L3.5625 69.9685L3.73212 69.3385V72.5614C3.73338 72.6333 3.72007 72.7047 3.693 72.7713C3.66593 72.838 3.62568 72.8984 3.57463 72.9491C3.52889 72.9957 3.47417 73.0327 3.41378 73.0577C3.3534 73.0827 3.2886 73.0952 3.22325 73.0945C3.07992 73.0989 2.94064 73.0466 2.83555 72.9491C2.73675 72.8439 2.68061 72.7057 2.67803 72.5614V69.4233L2.76285 69.7383L0.436556 66.6245C0.387481 66.557 0.346807 66.4838 0.315407 66.4064C0.310229 66.3419 0.310229 66.2771 0.315407 66.2126C0.312979 66.1399 0.328246 66.0678 0.359907 66.0023C0.391567 65.9369 0.438666 65.8801 0.49714 65.837C0.552048 65.7809 0.61891 65.738 0.692739 65.7114C0.766569 65.6847 0.845468 65.6752 0.92352 65.6833C1.00157 65.6915 1.07677 65.7172 1.1435 65.7585C1.21024 65.7998 1.26678 65.8556 1.30891 65.9218L3.41711 68.8175H3.16267L5.13759 65.9823C5.17512 65.9035 5.23104 65.8349 5.30061 65.7822C5.37019 65.7295 5.4514 65.6942 5.53742 65.6794Z" fill="black"></path><path d="M12.9044 70.3199C12.9187 70.8418 12.7888 71.3575 12.5288 71.8102C12.2954 72.2328 11.9521 72.5845 11.5352 72.8279C11.1026 73.083 10.6077 73.213 10.1055 73.2035C9.6072 73.2133 9.11609 73.0832 8.68797 72.8279C8.26473 72.5887 7.91651 72.2363 7.68234 71.8102C7.42232 71.3575 7.29235 70.8418 7.30674 70.3199C7.29383 69.7944 7.42363 69.2752 7.68234 68.8175C7.92326 68.3965 8.2699 68.0457 8.68797 67.7998C9.11609 67.5445 9.6072 67.4144 10.1055 67.4242C10.6077 67.4147 11.1026 67.5447 11.5352 67.7998C11.9468 68.0499 12.2886 68.4 12.5288 68.8175C12.7875 69.2752 12.9173 69.7944 12.9044 70.3199ZM11.8503 70.3199C11.8546 69.9712 11.7757 69.6264 11.6201 69.3143C11.4727 69.0403 11.2553 68.8103 10.99 68.6479C10.7223 68.489 10.4168 68.4051 10.1055 68.4051C9.79427 68.4051 9.48873 68.489 9.22106 68.6479C8.95576 68.8103 8.73835 69.0403 8.59104 69.3143C8.43989 69.6258 8.36135 69.9676 8.36135 70.3139C8.36135 70.6601 8.43989 71.0019 8.59104 71.3134C8.73803 71.5909 8.95527 71.8248 9.22106 71.9919C9.48873 72.1508 9.79427 72.2347 10.1055 72.2347C10.4168 72.2347 10.7223 72.1508 10.99 71.9919C11.2558 71.8248 11.4731 71.5909 11.6201 71.3134C11.7742 71.0051 11.8531 70.6646 11.8503 70.3199Z" fill="black"></path><path d="M18.865 67.5454C19.0061 67.5461 19.1412 67.6027 19.2406 67.7029C19.2917 67.7535 19.3319 67.814 19.359 67.8806C19.3861 67.9473 19.3994 68.0187 19.3981 68.0906V70.8652C19.3852 71.3308 19.2382 71.7829 18.9749 72.1672C18.7116 72.5516 18.3431 72.8519 17.9135 73.0321C17.4839 73.2124 17.0115 73.265 16.5528 73.1837C16.0941 73.1024 15.6685 72.8905 15.3271 72.5735C15.1181 72.343 14.9569 72.0734 14.8529 71.7801C14.7489 71.4868 14.7042 71.1758 14.7213 70.8652V68.0906C14.7178 68.0184 14.7301 67.9463 14.7573 67.8793C14.7845 67.8124 14.826 67.7522 14.8788 67.7029C14.9295 67.6518 14.99 67.6116 15.0566 67.5845C15.1232 67.5574 15.1946 67.5441 15.2666 67.5454C15.3346 67.546 15.4018 67.5602 15.4643 67.5873C15.5267 67.6144 15.5831 67.6537 15.63 67.7029C15.6829 67.7522 15.7244 67.8124 15.7516 67.8793C15.7788 67.9463 15.7911 68.0184 15.7876 68.0906V70.8652C15.7583 71.2343 15.8758 71.6 16.1147 71.8829C16.2388 72.0037 16.3874 72.0965 16.5504 72.155C16.7134 72.2136 16.8871 72.2365 17.0597 72.2222C17.2323 72.2365 17.406 72.2136 17.5691 72.155C17.7321 72.0965 17.8807 72.0037 18.0048 71.8829C18.2436 71.6 18.3612 71.2343 18.3319 70.8652V68.0906C18.3291 68.0196 18.3405 67.9487 18.3654 67.8821C18.3904 67.8155 18.4284 67.7545 18.4773 67.7029C18.5812 67.602 18.7202 67.5455 18.865 67.5454Z" fill="black"></path><path d="M22.0521 73.0946C21.9088 73.099 21.7695 73.0467 21.6644 72.9491C21.569 72.8427 21.5171 72.7043 21.519 72.5614V68.0906C21.5161 68.0196 21.5275 67.9487 21.5525 67.8821C21.5775 67.8155 21.6155 67.7546 21.6644 67.7029C21.7682 67.602 21.9073 67.5455 22.0521 67.5454C22.1932 67.5461 22.3283 67.6028 22.4277 67.7029C22.4787 67.7536 22.519 67.814 22.5461 67.8806C22.5732 67.9473 22.5865 68.0187 22.5852 68.0906V69.3022L22.4761 68.8539C22.5361 68.6616 22.6217 68.4782 22.7306 68.3087C22.8493 68.1394 22.9922 67.9884 23.1546 67.8604C23.3141 67.7333 23.4945 67.6349 23.6877 67.5696C23.8899 67.4973 24.1031 67.4604 24.3178 67.4606C24.4868 67.457 24.6525 67.5081 24.7903 67.606C24.8533 67.6464 24.9051 67.702 24.9411 67.7676C24.977 67.8332 24.996 67.9068 24.9963 67.9816C25.0025 68.0566 24.9928 68.1321 24.9677 68.2031C24.9427 68.2741 24.9028 68.339 24.8509 68.3935C24.7625 68.4775 24.6457 68.5251 24.5238 68.5268C24.4147 68.5257 24.3072 68.5009 24.2087 68.4541C24.0972 68.4278 23.9811 68.4278 23.8695 68.4541C23.71 68.4571 23.553 68.4942 23.4091 68.5631C23.2531 68.6513 23.1137 68.7662 22.9971 68.9024C22.8663 69.0614 22.7639 69.2417 22.6942 69.4355C22.6188 69.6578 22.5819 69.8914 22.5852 70.1261V72.6584C22.5826 72.8027 22.5265 72.9409 22.4277 73.0461C22.313 73.1088 22.1789 73.1261 22.0521 73.0946Z" fill="black"></path><path d="M33.7199 73.2035C33.2153 73.2085 32.7146 73.1136 32.2468 72.9244C31.7789 72.7352 31.3531 72.4553 30.9938 72.1009C30.6425 71.7549 30.3626 71.3432 30.1699 70.8893C29.9725 70.4218 29.8735 69.9186 29.8791 69.4112C29.8737 68.659 30.0935 67.9224 30.5102 67.2962C30.927 66.67 31.5216 66.1829 32.2175 65.8975C32.6936 65.7002 33.2046 65.6012 33.7199 65.6067C34.0549 65.6044 34.3888 65.6451 34.7134 65.7279C35.0183 65.8007 35.3118 65.9148 35.5858 66.0671C35.6758 66.1045 35.749 66.1734 35.7918 66.261C35.83 66.3362 35.8508 66.419 35.8524 66.5033C35.8536 66.6425 35.8016 66.7769 35.7069 66.8789C35.6625 66.9321 35.6069 66.9749 35.5441 67.0042C35.4813 67.0335 35.4128 67.0487 35.3435 67.0485H35.1981H35.0527C34.8504 66.952 34.6395 66.8749 34.4226 66.8183C34.192 66.7655 33.9565 66.7371 33.7199 66.7335C33.2332 66.7253 32.7542 66.8556 32.3387 67.1091C31.9233 67.3586 31.5827 67.7152 31.3525 68.1415C31.1223 68.5678 31.011 69.0482 31.0302 69.5323C31.0186 69.891 31.08 70.2481 31.2105 70.5824C31.341 70.9166 31.5379 71.2209 31.7893 71.4768C32.0407 71.7328 32.3414 71.9351 32.6733 72.0715C33.0051 72.2079 33.3612 72.2756 33.7199 72.2706C33.9811 72.2662 34.2411 72.2337 34.4953 72.1736C34.7349 72.1284 34.9672 72.051 35.186 71.9434L35.1011 72.2221V70.2229L35.2708 70.3684H33.8895C33.8204 70.3703 33.7516 70.3584 33.6871 70.3334C33.6227 70.3085 33.5638 70.2709 33.5139 70.2229C33.462 70.1755 33.421 70.1174 33.3938 70.0525C33.3666 69.9877 33.3539 69.9176 33.3564 69.8473C33.3537 69.7752 33.3663 69.7034 33.3935 69.6365C33.4207 69.5697 33.4617 69.5094 33.5139 69.4597C33.5638 69.4117 33.6227 69.3741 33.6871 69.3492C33.7516 69.3242 33.8204 69.3123 33.8895 69.3142H35.7069C35.779 69.3115 35.8509 69.3242 35.9177 69.3513C35.9846 69.3785 36.0449 69.4195 36.0947 69.4717C36.1435 69.5234 36.1816 69.5843 36.2065 69.6509C36.2315 69.7175 36.2429 69.7884 36.2401 69.8595V72.1979C36.2456 72.2978 36.2155 72.3966 36.1553 72.4765C36.1112 72.5549 36.0488 72.6214 35.9735 72.6704C35.6378 72.869 35.2799 73.0276 34.9073 73.1429C34.517 73.2242 34.1165 73.2447 33.7199 73.2035Z" fill="black"></path><path d="M42.2986 67.5453C42.4392 67.5486 42.5734 67.6049 42.6742 67.7029C42.7231 67.7545 42.7611 67.8155 42.7861 67.882C42.8111 67.9486 42.8225 68.0195 42.8196 68.0906V70.8651C42.8395 71.1761 42.7961 71.4878 42.6919 71.7815C42.5878 72.0751 42.4251 72.3446 42.2138 72.5735C41.9822 72.7889 41.7091 72.9547 41.4112 73.061C41.1133 73.1672 40.7968 73.2116 40.4812 73.1914C40.1674 73.2114 39.8529 73.1669 39.557 73.0606C39.2611 72.9543 38.9901 72.7885 38.7607 72.5735C38.5517 72.343 38.3905 72.0733 38.2865 71.7801C38.1825 71.4868 38.1378 71.1758 38.1549 70.8651V68.0906C38.1514 68.0184 38.1637 67.9463 38.1909 67.8793C38.2181 67.8123 38.2596 67.7521 38.3124 67.7029C38.3611 67.6523 38.4194 67.6121 38.4839 67.5846C38.5485 67.5571 38.6179 67.5429 38.688 67.5429C38.7582 67.5429 38.8276 67.5571 38.8922 67.5846C38.9567 67.6121 39.015 67.6523 39.0636 67.7029C39.1165 67.7521 39.158 67.8123 39.1852 67.8793C39.2124 67.9463 39.2247 68.0184 39.2211 68.0906V70.8651C39.1948 71.2319 39.3072 71.5952 39.5362 71.8829C39.8045 72.1024 40.1406 72.2223 40.4873 72.2223C40.834 72.2223 41.17 72.1024 41.4384 71.8829C41.6772 71.6 41.7948 71.2342 41.7655 70.8651V68.0906C41.7627 68.0195 41.7741 67.9486 41.799 67.882C41.824 67.8155 41.862 67.7545 41.9109 67.7029C42.0148 67.602 42.1538 67.5455 42.2986 67.5453Z" fill="black"></path><path d="M45.4001 66.7942C45.2415 66.803 45.0843 66.7605 44.9518 66.673C44.9045 66.6257 44.8681 66.5687 44.8451 66.5059C44.8221 66.4432 44.813 66.3762 44.8185 66.3095V66.1278C44.8117 66.06 44.8214 65.9915 44.8467 65.9282C44.8721 65.865 44.9122 65.8087 44.9639 65.7643C45.0978 65.681 45.2549 65.6428 45.4122 65.6552C45.571 65.6437 45.7291 65.6864 45.8605 65.7764C45.909 65.8202 45.9463 65.8749 45.9695 65.936C45.9927 65.9971 46.001 66.0629 45.9938 66.1278V66.3095C46.0002 66.3781 45.9917 66.4472 45.9686 66.512C45.9456 66.5769 45.9087 66.636 45.8605 66.6851C45.7221 66.7685 45.5611 66.8067 45.4001 66.7942ZM45.9332 72.5372C45.9351 72.6801 45.8832 72.8185 45.7878 72.9249C45.738 72.9728 45.6791 73.0104 45.6146 73.0353C45.5501 73.0603 45.4813 73.0722 45.4122 73.0703C45.3411 73.0731 45.2702 73.0617 45.2036 73.0368C45.137 73.0118 45.0761 72.9737 45.0245 72.9249C44.9291 72.8185 44.8772 72.6801 44.8791 72.5372V68.0058C44.8778 67.9339 44.8911 67.8625 44.9182 67.7958C44.9453 67.7292 44.9855 67.6687 45.0366 67.618C45.0856 67.5689 45.1443 67.5306 45.209 67.5056C45.2737 67.4806 45.3429 67.4693 45.4122 67.4727C45.4813 67.4708 45.5501 67.4826 45.6146 67.5076C45.6791 67.5326 45.738 67.5701 45.7878 67.618C45.8832 67.7245 45.9351 67.8629 45.9332 68.0058V72.5372Z" fill="black"></path><path d="M52.56 65.2918C52.6303 65.2892 52.7003 65.302 52.7652 65.3292C52.83 65.3564 52.8882 65.3974 52.9356 65.4493C52.9845 65.5009 53.0225 65.5618 53.0475 65.6284C53.0725 65.695 53.0839 65.7659 53.081 65.837V72.5614C53.0829 72.7043 53.031 72.8427 52.9356 72.9491C52.8858 72.997 52.8269 73.0346 52.7625 73.0596C52.698 73.0845 52.6292 73.0964 52.56 73.0945C52.489 73.0974 52.4181 73.0859 52.3515 73.061C52.2849 73.036 52.224 72.998 52.1723 72.9491C52.0769 72.8427 52.025 72.7043 52.0269 72.5614V71.7981H52.245C52.2376 71.9541 52.1873 72.105 52.0996 72.2342C51.9818 72.4078 51.8389 72.563 51.6756 72.6947C51.4874 72.8407 51.2793 72.959 51.0577 73.046C50.8149 73.1431 50.5558 73.1924 50.2943 73.1914C49.8305 73.1995 49.3748 73.0687 48.9858 72.8158C48.5952 72.5577 48.278 72.2029 48.065 71.786C47.8284 71.3256 47.7117 70.8131 47.7257 70.2957C47.7143 69.7786 47.8308 69.2666 48.065 68.8054C48.2809 68.3975 48.5928 68.0483 48.9737 67.7877C49.3508 67.5384 49.7938 67.4076 50.2459 67.4121C50.5311 67.4089 50.8145 67.4582 51.0819 67.5575C51.3275 67.6491 51.5567 67.7801 51.7604 67.9452C51.931 68.0821 52.0783 68.2458 52.1965 68.4298C52.2942 68.573 52.3489 68.7412 52.3541 68.9145H52.0269V65.7885C52.0241 65.7175 52.0355 65.6465 52.0604 65.58C52.0854 65.5134 52.1235 65.4525 52.1723 65.4008C52.2258 65.3566 52.2879 65.324 52.3546 65.3052C52.4214 65.2864 52.4914 65.2819 52.56 65.2918ZM50.367 72.2342C50.6808 72.2409 50.9892 72.1522 51.2515 71.9798C51.5004 71.8022 51.7004 71.5647 51.8331 71.2892C51.9767 70.9841 52.0512 70.6511 52.0512 70.3139C52.0512 69.9767 51.9767 69.6436 51.8331 69.3385C51.6998 69.0598 51.4949 68.8215 51.2394 68.6479C50.9775 68.486 50.6749 68.402 50.367 68.4056C50.063 68.4023 49.7644 68.4864 49.5068 68.6479C49.2542 68.8248 49.0501 69.0623 48.9131 69.3385C48.7779 69.6459 48.7082 69.9781 48.7082 70.3139C48.7082 70.6497 48.7779 70.9818 48.9131 71.2892C49.0501 71.5655 49.2542 71.8029 49.5068 71.9798C49.7609 72.1503 50.0611 72.239 50.367 72.2342Z" fill="black"></path><path d="M57.7942 73.2036C57.2663 73.2171 56.744 73.0917 56.2797 72.8401C55.8559 72.6111 55.51 72.261 55.2862 71.8345C55.039 71.3903 54.9136 70.8887 54.9227 70.3805C54.9103 69.8281 55.0396 69.2816 55.2983 68.7933C55.5338 68.3763 55.8715 68.0261 56.2797 67.7756C56.665 67.5475 57.1041 67.4262 57.5519 67.4242C57.8898 67.4237 58.2241 67.4939 58.5333 67.6302C58.8425 67.7644 59.1224 67.9578 59.3572 68.1996C59.6051 68.4459 59.8026 68.7381 59.9387 69.0599C60.0763 69.3989 60.1502 69.7603 60.1568 70.1261C60.1531 70.1929 60.1361 70.2584 60.107 70.3187C60.0779 70.379 60.0372 70.4329 59.9872 70.4775C59.8848 70.5621 59.7566 70.6091 59.6237 70.6107H55.5164L55.2619 69.7141H59.2239L59.03 69.8959V69.6415C59.0093 69.4073 58.9209 69.1841 58.7756 68.9993C58.6279 68.8158 58.4418 68.6669 58.2304 68.5631C58.0207 68.4555 57.7876 68.4014 57.5519 68.4056C57.3462 68.4073 57.142 68.44 56.9461 68.5025C56.7504 68.5718 56.5725 68.6835 56.4251 68.8297C56.2658 68.9947 56.1457 69.1935 56.0737 69.4112C55.9798 69.7006 55.9348 70.0036 55.9405 70.3078C55.9344 70.662 56.0178 71.0121 56.1828 71.3256C56.332 71.6061 56.5592 71.8376 56.837 71.992C57.113 72.1522 57.4267 72.2358 57.7457 72.2343C57.9591 72.2427 58.1723 72.2141 58.3758 72.1495C58.5283 72.1129 58.6724 72.0471 58.7998 71.9556C58.9069 71.8917 59.0082 71.8187 59.1027 71.7375C59.1938 71.6798 59.2981 71.6465 59.4056 71.6406C59.4664 71.6395 59.5267 71.6507 59.5829 71.6737C59.6391 71.6966 59.6901 71.7306 59.7328 71.7739C59.7751 71.8147 59.8087 71.8636 59.8316 71.9178C59.8545 71.9719 59.8662 72.0301 59.866 72.0889C59.8601 72.1702 59.8365 72.2492 59.7967 72.3204C59.7569 72.3916 59.702 72.4532 59.6358 72.5008C59.4056 72.7128 59.1388 72.8811 58.8483 72.9976C58.5131 73.1322 58.1554 73.2021 57.7942 73.2036Z" fill="black"></path><path d="M68.3833 67.6423C68.4486 67.6416 68.5134 67.6541 68.5738 67.6791C68.6342 67.7041 68.6889 67.741 68.7346 67.7877C68.7782 67.8326 68.8124 67.8857 68.8353 67.9439C68.8582 68.0022 68.8693 68.0644 68.8679 68.1269C68.87 68.2568 68.8223 68.3825 68.7346 68.4783C68.6376 68.5639 68.5127 68.6113 68.3833 68.6116H65.645C65.5192 68.6117 65.3979 68.5641 65.3058 68.4783C65.2579 68.4335 65.2202 68.3789 65.1951 68.3183C65.1701 68.2577 65.1582 68.1925 65.1604 68.1269C65.1584 68.0632 65.1703 67.9998 65.1954 67.9412C65.2206 67.8826 65.2582 67.8302 65.3058 67.7877C65.3493 67.7414 65.4018 67.7045 65.4602 67.6795C65.5186 67.6545 65.5815 67.6418 65.645 67.6423H68.3833ZM68.1652 65.3039C68.3023 65.2922 68.4401 65.2922 68.5771 65.3039C68.7111 65.3346 68.8357 65.3969 68.9406 65.4856C68.9838 65.5283 69.0179 65.5793 69.0408 65.6355C69.0637 65.6917 69.075 65.7521 69.0739 65.8128C69.0785 65.8765 69.0701 65.9405 69.0493 66.0009C69.0285 66.0613 68.9956 66.1168 68.9527 66.1641C68.9158 66.208 68.8693 66.2428 68.8167 66.2659C68.7642 66.289 68.7071 66.2998 68.6498 66.2974C68.5574 66.3102 68.4636 66.3102 68.3712 66.2974C68.2507 66.2791 68.1281 66.2791 68.0077 66.2974C67.8687 66.2948 67.7327 66.3373 67.62 66.4186C67.5255 66.484 67.4535 66.5772 67.414 66.6851C67.3911 66.793 67.3911 66.9044 67.414 67.0122V72.622C67.4114 72.7663 67.3553 72.9045 67.2565 73.0097C67.2067 73.0576 67.1478 73.0952 67.0833 73.1201C67.0188 73.1451 66.95 73.157 66.8809 73.1551C66.8116 73.1584 66.7424 73.1472 66.6777 73.1222C66.613 73.0971 66.5543 73.0588 66.5053 73.0097C66.4099 72.9033 66.358 72.7649 66.3599 72.622V67.0244C66.3509 66.8008 66.3882 66.5777 66.4695 66.3692C66.5509 66.1607 66.6744 65.9712 66.8324 65.8128C67.1977 65.483 67.673 65.3015 68.1652 65.3039Z" fill="black"></path><path d="M75.8831 70.3199C75.8952 70.84 75.7698 71.3541 75.5197 71.8102C75.2855 72.2363 74.9373 72.5887 74.514 72.8279C74.08 73.0743 73.5895 73.2039 73.0904 73.2039C72.5913 73.2039 72.1008 73.0743 71.6668 72.8279C71.249 72.5816 70.9025 72.2308 70.6611 71.8102C70.4067 71.3552 70.2772 70.8411 70.2855 70.3199C70.279 69.7951 70.4084 69.2775 70.6611 68.8175C70.9091 68.402 71.2542 68.0527 71.6668 67.7998C72.1008 67.5534 72.5913 67.4238 73.0904 67.4238C73.5895 67.4238 74.08 67.5534 74.514 67.7998C74.9321 68.0457 75.2787 68.3965 75.5197 68.8175C75.7687 69.2785 75.894 69.7961 75.8831 70.3199ZM74.8291 70.3199C74.8389 69.9706 74.7596 69.6245 74.5988 69.3143C74.455 69.0378 74.2368 68.807 73.9688 68.6479C73.7069 68.486 73.4043 68.402 73.0965 68.4056C72.785 68.4036 72.479 68.4874 72.212 68.6479C71.944 68.807 71.7257 69.0378 71.5819 69.3143C71.4226 69.6233 71.3394 69.9661 71.3394 70.3139C71.3394 70.6616 71.4226 71.0044 71.5819 71.3134C71.7238 71.5925 71.9407 71.8265 72.2083 71.9892C72.4758 72.1519 72.7834 72.2367 73.0965 72.2342C73.4043 72.2378 73.7069 72.1538 73.9688 71.9919C74.2377 71.8286 74.4558 71.5937 74.5988 71.3134C74.7586 71.0072 74.8379 70.6653 74.8291 70.3199Z" fill="black"></path><path d="M78.2329 73.0946C78.1638 73.0965 78.095 73.0846 78.0305 73.0596C77.966 73.0347 77.9072 72.9971 77.8573 72.9491C77.8063 72.8985 77.766 72.838 77.7389 72.7714C77.7119 72.7048 77.6986 72.6334 77.6998 72.5614V68.0906C77.6963 68.0184 77.7085 67.9463 77.7358 67.8793C77.763 67.8124 77.8044 67.7522 77.8573 67.7029C77.9059 67.6523 77.9643 67.6121 78.0288 67.5846C78.0933 67.5571 78.1628 67.5429 78.2329 67.5429C78.3031 67.5429 78.3725 67.5571 78.437 67.5846C78.5016 67.6121 78.5599 67.6523 78.6085 67.7029C78.6614 67.7522 78.7029 67.8124 78.7301 67.8793C78.7573 67.9463 78.7696 68.0184 78.766 68.0906V69.3022L78.657 68.8539C78.7169 68.6616 78.8025 68.4782 78.9114 68.3087C79.0302 68.1394 79.173 67.9884 79.3355 67.8604C79.4977 67.7307 79.6826 67.6321 79.8807 67.5696C80.0784 67.4962 80.2877 67.4593 80.4986 67.4606C80.6714 67.457 80.841 67.5079 80.9833 67.606C81.0448 67.647 81.0948 67.703 81.1287 67.7687C81.1626 67.8344 81.1793 67.9077 81.1771 67.9816C81.1833 68.0566 81.1736 68.1321 81.1485 68.2031C81.1235 68.2741 81.0837 68.339 81.0317 68.3935C80.9433 68.4775 80.8265 68.5251 80.7046 68.5268C80.5992 68.5273 80.4953 68.5024 80.4017 68.4541C80.2861 68.4276 80.166 68.4276 80.0503 68.4541C79.8945 68.4556 79.7412 68.4929 79.602 68.5631C79.4401 68.6478 79.2961 68.763 79.178 68.9024C79.0471 69.0614 78.9447 69.2417 78.8751 69.4355C78.7996 69.6578 78.7628 69.8914 78.766 70.1261V72.6584C78.7673 72.7303 78.754 72.8017 78.7269 72.8683C78.6998 72.9349 78.6596 72.9954 78.6085 73.0461C78.4938 73.1088 78.3598 73.1261 78.2329 73.0946Z" fill="black"></path><path d="M87.0668 65.7158C87.1369 65.7148 87.2065 65.7283 87.2711 65.7554C87.3357 65.7825 87.3941 65.8227 87.4424 65.8734C87.4944 65.9208 87.5354 65.9789 87.5626 66.0438C87.5898 66.1087 87.6025 66.1787 87.5999 66.2489V72.5614C87.5989 72.6341 87.5834 72.7058 87.5543 72.7724C87.5251 72.839 87.483 72.8991 87.4303 72.9491C87.3239 73.0445 87.1855 73.0965 87.0426 73.0945C86.9696 73.0983 86.8966 73.0874 86.8279 73.0625C86.7592 73.0375 86.6963 72.9989 86.6428 72.9491C86.5474 72.8427 86.4955 72.7043 86.4974 72.5614V66.2489C86.4948 66.1787 86.5076 66.1087 86.5348 66.0438C86.562 65.9789 86.603 65.9208 86.6549 65.8734C86.7088 65.8199 86.7733 65.7782 86.8442 65.7511C86.9152 65.724 86.991 65.712 87.0668 65.7158ZM87.0668 68.8539H91.9133V69.8838H87.0668V68.8539ZM91.9133 65.7158C91.9874 65.7113 92.0615 65.7231 92.1306 65.7503C92.1997 65.7775 92.262 65.8195 92.3131 65.8734C92.365 65.9208 92.406 65.9789 92.4332 66.0438C92.4604 66.1087 92.4732 66.1787 92.4706 66.2489V72.5614C92.468 72.7057 92.4119 72.8439 92.3131 72.9491C92.2043 73.0485 92.0605 73.1009 91.9133 73.0945C91.7699 73.099 91.6306 73.0467 91.5255 72.9491C91.4745 72.8985 91.4342 72.838 91.4072 72.7714C91.3801 72.7048 91.3668 72.6333 91.368 72.5614V66.2489C91.3678 66.1779 91.3828 66.1075 91.4121 66.0427C91.4413 65.9779 91.4842 65.9202 91.5377 65.8734C91.6112 65.7922 91.7089 65.737 91.8163 65.7158H91.9133Z" fill="black"></path><path d="M99.158 67.4605C99.2291 67.4605 99.2994 67.4747 99.3649 67.5023C99.4304 67.5298 99.4897 67.5702 99.5393 67.6209C99.589 67.6717 99.628 67.732 99.6541 67.7981C99.6802 67.8641 99.6928 67.9348 99.6911 68.0058V72.5614C99.6924 72.6333 99.6791 72.7047 99.652 72.7714C99.625 72.838 99.5847 72.8985 99.5336 72.9491C99.431 73.0428 99.297 73.0947 99.158 73.0947C99.0191 73.0947 98.8851 73.0428 98.7824 72.9491C98.687 72.8427 98.6351 72.7043 98.637 72.5614V71.7981H98.8551C98.8458 71.9483 98.7908 72.092 98.6976 72.2101C98.5838 72.3795 98.4449 72.5307 98.2857 72.6583C98.0944 72.8062 97.882 72.9247 97.6556 73.0097C97.4135 73.1089 97.1539 73.1583 96.8923 73.1551C96.4284 73.1632 95.9728 73.0324 95.5838 72.7795C95.1932 72.5214 94.8759 72.1666 94.663 71.7496C94.4393 71.2825 94.3232 70.7712 94.3232 70.2533C94.3232 69.7354 94.4393 69.2241 94.663 68.757C94.8794 68.3457 95.1961 67.9956 95.5838 67.7392C95.9455 67.5067 96.3654 67.3808 96.7954 67.3758C97.0845 67.3732 97.3718 67.4225 97.6435 67.5212C97.8849 67.614 98.1099 67.7449 98.3099 67.9089C98.4866 68.0393 98.6349 68.2041 98.7461 68.3935C98.8437 68.5367 98.8984 68.7049 98.9036 68.8781H98.5886V68.0058C98.5867 67.9367 98.5985 67.8679 98.6235 67.8034C98.6485 67.7389 98.686 67.68 98.734 67.6302C98.7853 67.5692 98.8508 67.5219 98.9248 67.4923C98.9987 67.4627 99.0789 67.4518 99.158 67.4605ZM97.0135 72.2343C97.3233 72.2392 97.6273 72.1505 97.8858 71.9798C98.1414 71.8063 98.3463 71.5679 98.4795 71.2892C98.6147 70.9818 98.6845 70.6497 98.6845 70.3139C98.6845 69.9781 98.6147 69.646 98.4795 69.3386C98.3463 69.0599 98.1414 68.8215 97.8858 68.6479C97.6239 68.4861 97.3214 68.402 97.0135 68.4056C96.7092 68.4002 96.41 68.4845 96.1532 68.6479C95.8977 68.8215 95.6928 69.0599 95.5596 69.3386C95.4093 69.6392 95.3345 69.9718 95.3415 70.3078C95.3363 70.6475 95.411 70.9837 95.5596 71.2892C95.6928 71.5679 95.8977 71.8063 96.1532 71.9798C96.4064 72.1525 96.7072 72.2414 97.0135 72.2343Z" fill="black"></path><path d="M102.951 72.5615C102.953 72.7044 102.901 72.8427 102.805 72.9491C102.703 73.0438 102.569 73.0958 102.43 73.0946C102.361 73.0965 102.292 73.0846 102.227 73.0596C102.163 73.0347 102.104 72.9971 102.054 72.9491C101.955 72.8439 101.899 72.7058 101.897 72.5615V65.837C101.895 65.7651 101.909 65.6937 101.936 65.6271C101.963 65.5605 102.003 65.5 102.054 65.4493C102.105 65.3983 102.165 65.358 102.232 65.3309C102.298 65.3039 102.37 65.2906 102.442 65.2918C102.512 65.2893 102.582 65.302 102.647 65.3292C102.712 65.3564 102.77 65.3974 102.817 65.4493C102.907 65.5581 102.955 65.6959 102.951 65.837V72.5615Z" fill="black"></path><path d="M109.736 67.4605C109.806 67.4595 109.876 67.473 109.94 67.5001C110.005 67.5272 110.063 67.5674 110.112 67.6181C110.213 67.7219 110.269 67.861 110.269 68.0058V72.5614C110.267 72.7057 110.211 72.8439 110.112 72.9491C110.009 73.0428 109.875 73.0947 109.736 73.0947C109.597 73.0947 109.463 73.0428 109.361 72.9491C109.265 72.8427 109.213 72.7043 109.215 72.5614V71.7981H109.433C109.424 71.9483 109.369 72.092 109.276 72.2101C109.162 72.3795 109.023 72.5307 108.864 72.6583C108.673 72.8062 108.46 72.9247 108.234 73.0097C107.992 73.1089 107.732 73.1583 107.47 73.1551C106.994 73.1974 106.516 73.0916 106.101 72.8522C105.711 72.5941 105.394 72.2393 105.181 71.8223C104.957 71.3552 104.841 70.8439 104.841 70.326C104.841 69.8081 104.957 69.2968 105.181 68.8297C105.397 68.4184 105.714 68.0683 106.101 67.8119C106.463 67.5794 106.883 67.4535 107.313 67.4485C107.602 67.4459 107.889 67.4952 108.161 67.5938C108.402 67.6867 108.627 67.8176 108.827 67.9816C109.004 68.112 109.153 68.2768 109.264 68.4662C109.361 68.6094 109.416 68.7776 109.421 68.9508H109.106V68.0058C109.104 67.9367 109.116 67.8679 109.141 67.8034C109.166 67.7389 109.204 67.68 109.252 67.6302C109.308 67.5594 109.384 67.5059 109.47 67.4759C109.555 67.4459 109.648 67.4406 109.736 67.4605ZM107.58 72.2343C107.893 72.2409 108.202 72.1522 108.464 71.9798C108.719 71.8093 108.921 71.5698 109.046 71.2892C109.189 70.9841 109.264 70.6511 109.264 70.3139C109.264 69.9767 109.189 69.6436 109.046 69.3386C108.925 69.0524 108.72 68.8098 108.458 68.6431C108.196 68.4764 107.89 68.3936 107.58 68.4056C107.279 68.4019 106.984 68.4861 106.731 68.6479C106.476 68.8215 106.271 69.0599 106.138 69.3386C105.987 69.6392 105.913 69.9718 105.92 70.3078C105.914 70.6475 105.989 70.9837 106.138 71.2892C106.271 71.5679 106.476 71.8063 106.731 71.9798C106.977 72.1484 107.269 72.2372 107.567 72.2343H107.58Z" fill="black"></path><path d="M113.516 72.5614C113.518 72.7043 113.466 72.8426 113.371 72.9491C113.269 73.0437 113.134 73.0957 112.995 73.0945C112.926 73.0964 112.857 73.0845 112.793 73.0595C112.728 73.0346 112.669 72.997 112.62 72.9491C112.568 72.8984 112.528 72.838 112.501 72.7713C112.474 72.7047 112.461 72.6333 112.462 72.5614V65.8369C112.461 65.765 112.474 65.6936 112.501 65.627C112.528 65.5604 112.568 65.4999 112.62 65.4493C112.669 65.397 112.73 65.356 112.796 65.3288C112.863 65.3016 112.935 65.289 113.007 65.2917C113.077 65.2892 113.148 65.3019 113.212 65.3291C113.277 65.3563 113.335 65.3973 113.383 65.4493C113.473 65.558 113.52 65.6958 113.516 65.8369V72.5614Z" fill="black"></path><path d="M119.429 66.7942C119.29 66.7954 119.156 66.7434 119.054 66.6488C119.002 66.6037 118.961 66.5477 118.934 66.4848C118.906 66.422 118.894 66.3538 118.896 66.2853C118.893 66.2149 118.905 66.1447 118.932 66.0797C118.96 66.0147 119.001 65.9566 119.054 65.9097C119.16 65.8233 119.292 65.7762 119.429 65.7764H124.276C124.347 65.7736 124.418 65.785 124.484 65.8099C124.551 65.8349 124.612 65.8729 124.663 65.9218C124.713 65.9688 124.752 66.0252 124.779 66.0876C124.806 66.15 124.82 66.2172 124.821 66.2853C124.823 66.3538 124.81 66.422 124.783 66.4848C124.756 66.5477 124.715 66.6037 124.663 66.6488C124.612 66.6977 124.551 66.7357 124.484 66.7607C124.418 66.7856 124.347 66.797 124.276 66.7942H119.429ZM121.852 73.1551C121.702 73.1608 121.554 73.1088 121.44 73.0097C121.389 72.9591 121.349 72.8986 121.322 72.8319C121.295 72.7653 121.282 72.6939 121.283 72.622V66.2974H122.422V72.622C122.421 72.6947 122.405 72.7664 122.376 72.833C122.347 72.8996 122.305 72.9597 122.252 73.0097C122.134 73.0854 121.992 73.1156 121.852 73.0945V73.1551Z" fill="black"></path><path d="M127.037 73.0946C126.894 73.099 126.755 73.0467 126.65 72.9491C126.554 72.8427 126.502 72.7043 126.504 72.5614V68.0906C126.501 68.0196 126.513 67.9487 126.538 67.8821C126.563 67.8155 126.601 67.7546 126.65 67.7029C126.754 67.602 126.893 67.5455 127.037 67.5454C127.178 67.5486 127.312 67.6049 127.413 67.7029C127.462 67.7546 127.5 67.8155 127.525 67.8821C127.55 67.9487 127.561 68.0196 127.558 68.0906V69.3022L127.462 68.8539C127.511 68.6577 127.597 68.4727 127.716 68.3087C127.834 68.1425 127.972 67.9919 128.128 67.8604C128.293 67.7355 128.477 67.6374 128.673 67.5696C128.875 67.4973 129.088 67.4604 129.303 67.4606C129.472 67.457 129.638 67.5081 129.776 67.606C129.839 67.6464 129.89 67.702 129.926 67.7676C129.962 67.8332 129.981 67.9068 129.982 67.9816C129.988 68.0566 129.978 68.1321 129.953 68.2031C129.928 68.2741 129.888 68.339 129.836 68.3935C129.745 68.473 129.63 68.5199 129.509 68.5268C129.4 68.5274 129.292 68.5025 129.194 68.4541C129.083 68.4278 128.966 68.4278 128.855 68.4541C128.695 68.4555 128.538 68.4928 128.394 68.5631C128.235 68.651 128.091 68.7658 127.97 68.9024C127.848 69.0647 127.75 69.2444 127.68 69.4355C127.594 69.6555 127.553 69.8902 127.558 70.1261V72.6584C127.56 72.8013 127.508 72.9397 127.413 73.0461C127.298 73.1066 127.164 73.1238 127.037 73.0946Z" fill="black"></path><path d="M136.113 67.4605C136.258 67.4607 136.397 67.5172 136.501 67.618C136.599 67.7231 136.651 67.8624 136.646 68.0058V72.5614C136.648 72.7043 136.596 72.8427 136.501 72.9491C136.396 73.0467 136.257 73.0989 136.113 73.0945C136.044 73.0978 135.975 73.0866 135.91 73.0616C135.845 73.0365 135.787 72.9982 135.738 72.9491C135.642 72.8427 135.59 72.7043 135.592 72.5614V71.7981H135.81C135.801 71.9482 135.746 72.0919 135.653 72.21C135.539 72.3795 135.4 72.5307 135.241 72.6583C135.052 72.8036 134.844 72.9219 134.623 73.0097C134.376 73.108 134.113 73.1573 133.848 73.1551C133.384 73.1632 132.928 73.0324 132.539 72.7795C132.148 72.5214 131.831 72.1666 131.618 71.7496C131.406 71.2794 131.296 70.7693 131.296 70.2533C131.296 69.7373 131.406 69.2272 131.618 68.7569C131.835 68.3456 132.151 67.9956 132.539 67.7392C132.918 67.4955 133.361 67.3691 133.811 67.3757C134.096 67.3725 134.38 67.4218 134.647 67.5211C134.889 67.614 135.114 67.7449 135.314 67.9088C135.491 68.0423 135.643 68.2064 135.762 68.3935C135.854 68.5393 135.908 68.7059 135.919 68.8781H135.592V68.0058C135.59 67.9366 135.602 67.8678 135.627 67.8034C135.652 67.7389 135.69 67.68 135.738 67.6302C135.784 67.576 135.842 67.5328 135.906 67.5035C135.971 67.4741 136.042 67.4595 136.113 67.4605ZM133.969 72.2342C134.278 72.2392 134.583 72.1505 134.841 71.9798C135.097 71.8062 135.301 71.5679 135.435 71.2892C135.57 70.9818 135.64 70.6497 135.64 70.3139C135.64 69.9781 135.57 69.6459 135.435 69.3385C135.301 69.0598 135.097 68.8215 134.841 68.6479C134.579 68.486 134.277 68.402 133.969 68.4056C133.664 68.4002 133.365 68.4845 133.108 68.6479C132.853 68.8215 132.648 69.0598 132.515 69.3385C132.365 69.6392 132.29 69.9718 132.297 70.3078C132.291 70.6475 132.366 70.9837 132.515 71.2892C132.648 71.5679 132.853 71.8062 133.108 71.9798C133.362 72.1524 133.662 72.2414 133.969 72.2342Z" fill="black"></path><path d="M138.899 67.4969C139.006 67.4948 139.112 67.5243 139.202 67.5818C139.296 67.6429 139.368 67.7319 139.408 67.8362L141.056 71.6649L140.862 71.7618L142.534 67.8483C142.564 67.7472 142.626 67.6588 142.712 67.5974C142.798 67.5359 142.901 67.5048 143.007 67.5091C143.071 67.5068 143.135 67.5174 143.196 67.5403C143.256 67.5632 143.311 67.5979 143.358 67.6424C143.404 67.6858 143.441 67.7384 143.466 67.7968C143.491 67.8551 143.504 67.9181 143.503 67.9816C143.515 68.0253 143.515 68.0712 143.503 68.1149C143.51 68.159 143.51 68.204 143.503 68.2482L141.504 72.7553C141.47 72.8515 141.408 72.9353 141.326 72.9957C141.244 73.0562 141.146 73.0907 141.044 73.0946C140.933 73.1104 140.821 73.0845 140.729 73.0219C140.623 72.9633 140.541 72.8687 140.499 72.7553L138.512 68.2602C138.507 68.22 138.507 68.1793 138.512 68.1391C138.504 68.0828 138.504 68.0258 138.512 67.9695C138.518 67.8498 138.57 67.7372 138.657 67.6544C138.72 67.5791 138.805 67.5243 138.899 67.4969Z" fill="black"></path><path d="M147.817 73.2036C147.289 73.2171 146.766 73.0917 146.302 72.8401C145.878 72.6111 145.532 72.261 145.309 71.8345C145.061 71.3903 144.936 70.8887 144.945 70.3805C144.933 69.8281 145.062 69.2816 145.321 68.7933C145.556 68.3763 145.894 68.0261 146.302 67.7756C146.687 67.5475 147.127 67.4262 147.574 67.4242C147.912 67.4237 148.247 67.4939 148.556 67.6302C148.865 67.7644 149.145 67.9578 149.38 68.1996C149.628 68.4459 149.825 68.7381 149.961 69.0599C150.099 69.3989 150.173 69.7603 150.179 70.1261C150.176 70.1929 150.159 70.2584 150.129 70.3187C150.1 70.379 150.06 70.4329 150.01 70.4775C149.907 70.5621 149.779 70.6091 149.646 70.6107H145.539L145.284 69.7141H149.246L149.053 69.8959V69.6415C149.032 69.4073 148.943 69.1841 148.798 68.9993C148.65 68.8158 148.464 68.6669 148.253 68.5631C148.043 68.4555 147.81 68.4014 147.574 68.4056C147.369 68.4073 147.164 68.44 146.969 68.5025C146.773 68.5718 146.595 68.6835 146.448 68.8297C146.288 68.9947 146.168 69.1935 146.096 69.4112C146.002 69.7006 145.957 70.0036 145.963 70.3078C145.957 70.662 146.04 71.0121 146.205 71.3256C146.354 71.6061 146.582 71.8376 146.86 71.992C147.135 72.1522 147.449 72.2358 147.768 72.2343C147.982 72.2427 148.195 72.2141 148.398 72.1495C148.551 72.1129 148.695 72.0471 148.822 71.9556C148.929 71.8917 149.031 71.8187 149.125 71.7375C149.216 71.6798 149.321 71.6465 149.428 71.6406C149.489 71.6395 149.549 71.6507 149.605 71.6737C149.662 71.6966 149.713 71.7306 149.755 71.7739C149.798 71.8147 149.831 71.8636 149.854 71.9178C149.877 71.9719 149.889 72.0301 149.889 72.0889C149.883 72.1702 149.859 72.2492 149.819 72.3204C149.779 72.3916 149.724 72.4532 149.658 72.5008C149.428 72.7128 149.161 72.8811 148.871 72.9976C148.536 73.1322 148.178 73.2021 147.817 73.2036Z" fill="black"></path><path d="M153.16 72.5615C153.162 72.7044 153.11 72.8427 153.014 72.9491C152.912 73.0438 152.778 73.0958 152.639 73.0946C152.57 73.0965 152.501 73.0846 152.436 73.0596C152.372 73.0347 152.313 72.9971 152.263 72.9491C152.164 72.8439 152.108 72.7058 152.106 72.5615V65.837C152.104 65.7651 152.118 65.6937 152.145 65.6271C152.172 65.5605 152.212 65.5 152.263 65.4493C152.314 65.3983 152.374 65.358 152.441 65.3309C152.507 65.3039 152.579 65.2906 152.651 65.2918C152.721 65.2893 152.791 65.302 152.856 65.3292C152.921 65.3564 152.979 65.3974 153.026 65.4493C153.116 65.5581 153.164 65.6959 153.16 65.837V72.5615Z" fill="black"></path><path d="M11.4141 32.4814C12.9882 32.357 14.5564 32.7855 15.8486 33.693C16.8794 34.5542 17.6093 35.7212 17.9325 37.025C18.3312 38.5389 18.5227 40.1 18.502 41.6654V52.0368C18.5103 52.3609 18.4534 52.6834 18.3348 52.9852C18.2162 53.2869 18.0382 53.5618 17.8114 53.7936C17.5894 54.0282 17.3202 54.2132 17.0216 54.3364C16.723 54.4596 16.4017 54.5182 16.0788 54.5084C15.7543 54.5169 15.4316 54.4577 15.1312 54.3346C14.8308 54.2116 14.5594 54.0273 14.3341 53.7936C14.1073 53.5618 13.9293 53.2869 13.8107 52.9852C13.692 52.6834 13.6352 52.3609 13.6435 52.0368V41.7139C13.6548 40.8944 13.5446 40.0778 13.3163 39.2907C13.1113 38.6002 12.6858 37.9959 12.1047 37.5702C11.386 37.1035 10.537 36.8785 9.68152 36.928C8.76342 36.9026 7.85536 37.1244 7.05234 37.5702C6.34739 37.9712 5.77473 38.5691 5.40456 39.2907C5.03236 40.0434 4.84544 40.8742 4.85934 41.7139V52.0852C4.86762 52.4093 4.81076 52.7319 4.69214 53.0337C4.57351 53.3354 4.39551 53.6103 4.16872 53.842C3.94574 54.0754 3.67642 54.2596 3.37804 54.3827C3.07965 54.5058 2.75881 54.5652 2.43613 54.5569C2.11162 54.5654 1.78891 54.5062 1.48853 54.3831C1.18815 54.26 0.916684 54.0758 0.691414 53.842C0.464615 53.6103 0.28662 53.3354 0.167993 53.0337C0.0493652 52.7319 -0.0074914 52.4093 0.000790629 52.0852V27.0535C-0.0074914 26.7293 0.0493652 26.4068 0.167993 26.105C0.28662 25.8033 0.464615 25.5284 0.691414 25.2966C0.916684 25.0629 1.18815 24.8786 1.48853 24.7556C1.78891 24.6325 2.11162 24.5733 2.43613 24.5818C2.75881 24.5735 3.07965 24.6328 3.37804 24.7559C3.67642 24.8791 3.94574 25.0632 4.16872 25.2966C4.39551 25.5284 4.57351 25.8033 4.69214 26.105C4.81076 26.4068 4.86762 26.7293 4.85934 27.0535V37.0977L4.25354 36.9765C4.54002 36.4495 4.88114 35.954 5.27128 35.4984C5.73377 34.943 6.26276 34.4465 6.84637 34.0202C7.47627 33.5523 8.16987 33.1769 8.90609 32.9055C9.7101 32.6156 10.5595 32.472 11.4141 32.4814Z" fill="#2DBDB8"></path><path d="M41.7164 32.4815C42.0373 32.4701 42.3571 32.5256 42.6554 32.6445C42.9536 32.7634 43.2239 32.9431 43.449 33.1721C43.6788 33.4067 43.8585 33.6855 43.9772 33.9917C44.0959 34.2979 44.1512 34.625 44.1396 34.9532V52.0852C44.1479 52.4094 44.091 52.7319 43.9724 53.0337C43.8538 53.3355 43.6758 53.6103 43.449 53.8421C43.2269 54.0767 42.9578 54.2617 42.6592 54.3849C42.3606 54.5081 42.0393 54.5667 41.7164 54.5569C41.3919 54.5654 41.0692 54.5062 40.7688 54.3831C40.4684 54.2601 40.197 54.0758 39.9717 53.8421C39.7449 53.6103 39.5669 53.3355 39.4483 53.0337C39.3297 52.7319 39.2728 52.4094 39.2811 52.0852V50.0982L40.1777 50.4617C40.1246 50.9346 39.9256 51.3793 39.6082 51.7339C39.1682 52.2973 38.6501 52.7951 38.0695 53.2121C37.3688 53.7247 36.5975 54.1328 35.7795 54.4237C34.8664 54.7699 33.8967 54.9425 32.9202 54.9325C31.1276 54.9551 29.3675 54.454 27.8556 53.4907C26.3311 52.5137 25.0968 51.1455 24.2814 49.5288C23.3716 47.7276 22.9181 45.7305 22.9608 43.7131C22.9181 41.684 23.3714 39.6751 24.2814 37.861C25.0907 36.2515 26.3112 34.8846 27.8193 33.8991C29.2906 32.9455 31.0093 32.4442 32.7626 32.4573C33.8506 32.4488 34.9322 32.6249 35.9613 32.9782C36.8687 33.2955 37.7226 33.749 38.4935 34.3231C39.1304 34.7765 39.6907 35.3287 40.1534 35.9588C40.4794 36.3564 40.6815 36.8408 40.735 37.3522L39.2811 37.8853V34.9289C39.2712 34.6028 39.3272 34.278 39.4459 33.974C39.5646 33.67 39.7434 33.3931 39.9717 33.16C40.203 32.9368 40.4763 32.762 40.7759 32.6455C41.0754 32.529 41.3951 32.4732 41.7164 32.4815ZM33.526 50.498C34.633 50.5231 35.7221 50.215 36.6519 49.6136C37.5509 49.007 38.2706 48.1701 38.7358 47.1904C39.2349 46.1216 39.4835 44.953 39.4628 43.7736C39.4809 42.5724 39.224 41.383 38.7116 40.2963C38.2464 39.3166 37.5267 38.4798 36.6277 37.8731C35.6979 37.2717 34.6088 36.9635 33.5017 36.9887C32.4105 36.9688 31.3384 37.2769 30.4242 37.8731C29.5252 38.4798 28.8055 39.3166 28.3403 40.2963C27.8279 41.383 27.571 42.5724 27.5891 43.7736C27.5722 44.9631 27.8293 46.1404 28.3403 47.2146C28.8055 48.1943 29.5252 49.0312 30.4242 49.6378C31.348 50.2302 32.429 50.53 33.526 50.498Z" fill="#2DBDB8"></path><path d="M54.8753 52.0853C54.8753 52.728 54.62 53.3443 54.1656 53.7988C53.7111 54.2532 53.0948 54.5085 52.4521 54.5085C52.1351 54.5147 51.8203 54.4543 51.5281 54.3311C51.2359 54.208 50.9728 54.0249 50.7559 53.7937C50.5291 53.5619 50.3511 53.287 50.2324 52.9853C50.1138 52.6835 50.057 52.361 50.0652 52.0369V27.0536C50.0586 26.7286 50.1173 26.4055 50.238 26.1037C50.3588 25.8019 50.539 25.5275 50.768 25.2967C50.9991 25.0641 51.2751 24.8808 51.5791 24.7579C51.8832 24.635 52.209 24.5751 52.5369 24.5819C52.858 24.5723 53.1774 24.631 53.474 24.7543C53.7706 24.8775 54.0377 25.0624 54.2574 25.2967C54.4798 25.5304 54.6534 25.8062 54.7678 26.1079C54.8822 26.4096 54.9353 26.7311 54.9238 27.0536L54.8753 52.0853Z" fill="#2DBDB8"></path><path d="M78.4875 32.4815C78.8097 32.4748 79.1299 32.5325 79.4294 32.651C79.729 32.7696 80.0019 32.9468 80.2322 33.1721C80.4598 33.4077 80.6373 33.687 80.754 33.9931C80.8706 34.2993 80.9239 34.6258 80.9107 34.9532V52.0852C80.9206 52.4085 80.8657 52.7306 80.7491 53.0323C80.6326 53.334 80.4569 53.6093 80.2322 53.8421C79.7674 54.3008 79.1406 54.5581 78.4875 54.5581C77.8345 54.5581 77.2076 54.3008 76.7428 53.8421C76.516 53.6103 76.338 53.3355 76.2194 53.0337C76.1008 52.7319 76.0439 52.4094 76.0522 52.0852V50.0982L76.9488 50.4617C76.8958 50.9346 76.6967 51.3793 76.3793 51.7339C75.9394 52.2973 75.4212 52.7951 74.8406 53.2121C74.14 53.7247 73.3686 54.1328 72.5507 54.4237C71.6375 54.7699 70.6678 54.9425 69.6913 54.9325C67.9023 54.957 66.1455 54.4557 64.6389 53.4907C63.0901 52.5244 61.8336 51.1548 61.0041 49.5288C60.0943 47.7276 59.6408 45.7305 59.6834 43.7131C59.6408 41.684 60.0941 39.6751 61.0041 37.861C61.8133 36.2515 63.0339 34.8846 64.5419 33.8991C66.0133 32.9455 67.732 32.4442 69.4853 32.4573C70.5733 32.4488 71.6549 32.6249 72.6839 32.9782C73.5914 33.2955 74.4452 33.749 75.2162 34.3231C75.853 34.7765 76.4134 35.3287 76.8761 35.9588C77.2046 36.3561 77.4108 36.8401 77.4698 37.3522L76.0037 37.8853V34.9289C75.9938 34.6028 76.0499 34.278 76.1685 33.974C76.2872 33.67 76.4661 33.3931 76.6943 33.16C76.9314 32.9309 77.2127 32.7525 77.521 32.6359C77.8293 32.5192 78.1582 32.4667 78.4875 32.4815ZM70.3092 50.498C71.4125 50.523 72.4976 50.2147 73.423 49.6136C74.3221 49.007 75.0418 48.1701 75.507 47.1904C76.018 46.1162 76.275 44.9388 76.2582 43.7494C76.2763 42.5482 76.0193 41.3587 75.507 40.2721C75.0418 39.2924 74.3221 38.4555 73.423 37.8489C72.4976 37.2477 71.4125 36.9395 70.3092 36.9644C69.2175 36.9408 68.1443 37.2492 67.2317 37.8489C66.3282 38.4539 65.6042 39.2909 65.1356 40.2721C64.6275 41.3597 64.3747 42.5491 64.3966 43.7494C64.3759 44.9379 64.6288 46.1152 65.1356 47.1904C65.6042 48.1716 66.3282 49.0086 67.2317 49.6136C68.1443 50.2133 69.2175 50.5217 70.3092 50.498Z" fill="#2DBDB8"></path><path d="M91.6464 52.0853C91.6531 52.4103 91.5944 52.7333 91.4736 53.0352C91.3529 53.337 91.1727 53.6114 90.9437 53.8421C90.7126 54.0748 90.4366 54.2581 90.1326 54.381C89.8285 54.5039 89.5026 54.5637 89.1748 54.557C88.8577 54.5632 88.543 54.5027 88.2508 54.3796C87.9586 54.2564 87.6955 54.0734 87.4785 53.8421C87.2517 53.6104 87.0737 53.3355 86.9551 53.0338C86.8365 52.732 86.7796 52.4094 86.7879 52.0853V27.0536C86.7812 26.7286 86.84 26.4055 86.9607 26.1037C87.0814 25.8019 87.2617 25.5275 87.4906 25.2967C87.7218 25.0641 87.9977 24.8808 88.3018 24.7579C88.6059 24.635 88.9317 24.5751 89.2596 24.5819C89.5806 24.5723 89.9001 24.631 90.1967 24.7543C90.4933 24.8775 90.7603 25.0624 90.9801 25.2967C91.2025 25.5304 91.376 25.8062 91.4905 26.1079C91.6049 26.4096 91.6579 26.7311 91.6464 27.0536V52.0853Z" fill="#2DBDB8"></path><path d="M112.62 33.2933H122.216C122.516 33.2832 122.815 33.3348 123.095 33.4451C123.374 33.5554 123.628 33.7219 123.841 33.9344C124.053 34.1468 124.219 34.4006 124.33 34.6801C124.44 34.9596 124.492 35.2587 124.482 35.559C124.487 35.8495 124.432 36.138 124.322 36.4068C124.212 36.6756 124.047 36.9189 123.839 37.122C123.624 37.3289 123.369 37.4911 123.091 37.5992C122.812 37.7073 122.515 37.7593 122.216 37.752H112.62C112.319 37.7603 112.019 37.7064 111.74 37.5939C111.461 37.4813 111.208 37.3124 110.996 37.0977C110.786 36.8842 110.62 36.6304 110.51 36.3514C110.399 36.0725 110.347 35.7741 110.354 35.4742C110.348 35.1853 110.402 34.8982 110.512 34.6312C110.623 34.3643 110.788 34.1232 110.996 33.9233C111.21 33.7142 111.465 33.5505 111.744 33.4422C112.023 33.3339 112.321 33.2833 112.62 33.2933ZM116.958 28.2288C117.277 28.2199 117.596 28.2778 117.892 28.3988C118.188 28.5198 118.456 28.7012 118.678 28.9315C119.119 29.4137 119.358 30.0471 119.344 30.7004V48.717C119.33 49.0421 119.405 49.365 119.562 49.65C119.703 49.8876 119.915 50.0743 120.168 50.1831C120.719 50.4093 121.338 50.4093 121.889 50.1831C122.184 50.0579 122.501 49.996 122.822 50.0013C123.022 50.0102 123.219 50.0611 123.398 50.1509C123.578 50.2406 123.736 50.3672 123.864 50.5223C124.189 50.9395 124.352 51.4601 124.324 51.9883C124.311 52.3801 124.191 52.7608 123.977 53.0896C123.764 53.4183 123.465 53.6827 123.112 53.8542C122.31 54.3327 121.393 54.584 120.459 54.5812C119.83 54.5769 119.203 54.5283 118.581 54.4358C117.891 54.3396 117.227 54.1047 116.63 53.7452C115.982 53.3372 115.458 52.7588 115.116 52.0732C114.663 51.0957 114.455 50.0229 114.51 48.9472V30.7731C114.502 30.4461 114.56 30.1208 114.68 29.8168C114.801 29.5128 114.982 29.2364 115.213 29.0042C115.442 28.7576 115.719 28.5613 116.028 28.4278C116.336 28.2943 116.67 28.2265 117.006 28.2288H116.958Z" fill="#2DBDB8"></path><path d="M131.545 54.5569C131.222 54.5667 130.901 54.5081 130.602 54.3849C130.304 54.2617 130.035 54.0767 129.813 53.8421C129.586 53.6103 129.408 53.3354 129.289 53.0337C129.17 52.7319 129.114 52.4094 129.122 52.0852V35.353C129.114 35.0288 129.17 34.7063 129.289 34.4045C129.408 34.1028 129.586 33.8279 129.813 33.5961C130.033 33.3593 130.302 33.1721 130.601 33.0468C130.899 32.9215 131.221 32.8609 131.545 32.8692C131.87 32.8607 132.192 32.9199 132.493 33.043C132.793 33.166 133.065 33.3503 133.29 33.584C133.517 33.8158 133.695 34.0906 133.813 34.3924C133.932 34.6942 133.989 35.0167 133.98 35.3409V39.1574L133.69 36.4434C133.995 35.8063 134.404 35.2247 134.901 34.7229C135.37 34.2408 135.909 33.8323 136.501 33.5113C137.094 33.1692 137.735 32.9161 138.403 32.7601C139.066 32.602 139.745 32.5207 140.426 32.5178C141.169 32.4951 141.896 32.7402 142.474 33.2084C142.725 33.3966 142.929 33.6395 143.072 33.9188C143.215 34.1981 143.292 34.5062 143.298 34.8198C143.332 35.171 143.288 35.5253 143.171 35.8581C143.054 36.1908 142.866 36.494 142.619 36.7463C142.209 37.1231 141.674 37.3346 141.117 37.34C140.637 37.3469 140.161 37.2476 139.723 37.0492C139.267 36.8592 138.776 36.7644 138.282 36.7705C137.77 36.7743 137.265 36.8901 136.803 37.1098C136.273 37.3685 135.802 37.7359 135.422 38.1881C134.981 38.7241 134.64 39.3358 134.417 39.9934C134.138 40.8079 134.007 41.6653 134.029 42.5257V52.1216C134.037 52.4457 133.98 52.7682 133.862 53.07C133.743 53.3718 133.565 53.6467 133.338 53.8784C133.104 54.1118 132.823 54.2929 132.514 54.4099C132.205 54.5268 131.875 54.5769 131.545 54.5569Z" fill="#2DBDB8"></path><path d="M164.659 32.4815C164.981 32.4748 165.301 32.5325 165.601 32.6511C165.9 32.7697 166.173 32.9468 166.403 33.1721C166.633 33.4067 166.813 33.6856 166.932 33.9917C167.05 34.2979 167.106 34.625 167.094 34.9532V52.0853C167.102 52.4094 167.046 52.7319 166.927 53.0337C166.808 53.3355 166.63 53.6104 166.403 53.8421C166.178 54.0758 165.907 54.2601 165.606 54.3832C165.306 54.5062 164.983 54.5654 164.659 54.5569C164.336 54.5667 164.015 54.5081 163.716 54.3849C163.417 54.2617 163.148 54.0767 162.926 53.8421C162.699 53.6104 162.521 53.3355 162.403 53.0337C162.284 52.7319 162.227 52.4094 162.236 52.0853V50.0982L163.12 50.4617C163.073 50.9362 162.873 51.3826 162.551 51.7339C162.113 52.2996 161.595 52.7977 161.012 53.2121C160.317 53.7271 159.549 54.1354 158.734 54.4237C157.821 54.7688 156.851 54.9414 155.875 54.9325C154.079 54.9494 152.319 54.4397 150.81 53.4665C149.264 52.497 148.008 51.1282 147.175 49.5046C146.275 47.7003 145.826 45.7047 145.867 43.6888C145.826 41.6613 146.275 39.6539 147.175 37.8368C147.989 36.2268 149.214 34.8601 150.725 33.8748C152.191 32.9196 153.907 32.4181 155.657 32.4331C156.748 32.4246 157.834 32.6008 158.867 32.954C159.771 33.2712 160.621 33.7247 161.387 34.2989C162.028 34.7524 162.592 35.3045 163.059 35.9346C163.385 36.3322 163.588 36.8166 163.641 37.3279L162.187 37.861V34.9047C162.177 34.5786 162.233 34.2538 162.352 33.9498C162.471 33.6458 162.649 33.3689 162.878 33.1358C163.112 32.9077 163.392 32.7315 163.699 32.6188C164.005 32.5061 164.333 32.4593 164.659 32.4815ZM156.48 50.4981C157.584 50.5245 158.669 50.2162 159.594 49.6136C160.498 49.0086 161.222 48.1716 161.69 47.1904C162.197 46.1152 162.45 44.9379 162.429 43.7495C162.451 42.5492 162.199 41.3597 161.69 40.2721C161.222 39.2909 160.498 38.4539 159.594 37.8489C158.669 37.2464 157.584 36.938 156.48 36.9645C155.389 36.9408 154.316 37.2492 153.403 37.8489C152.5 38.451 151.779 39.2891 151.319 40.2721C150.807 41.3587 150.55 42.5482 150.568 43.7495C150.551 44.9389 150.808 46.1162 151.319 47.1904C151.779 48.1735 152.5 49.0116 153.403 49.6136C154.316 50.2133 155.389 50.5217 156.48 50.4981Z" fill="#2DBDB8"></path><path d="M173.526 32.8693C174.026 32.865 174.516 32.9993 174.944 33.257C175.388 33.5198 175.73 33.9256 175.913 34.408L181.874 48.0265L180.978 48.4263L187.036 34.4565C187.167 33.9953 187.45 33.5922 187.839 33.3127C188.229 33.0333 188.702 32.8941 189.18 32.9177C189.482 32.9032 189.783 32.9516 190.065 33.0601C190.346 33.1686 190.602 33.3347 190.816 33.5478C191.023 33.7482 191.186 33.9897 191.295 34.2567C191.403 34.5238 191.455 34.8105 191.446 35.0986C191.442 35.3041 191.41 35.5081 191.349 35.7044C191.276 35.9225 191.204 36.1285 191.119 36.3224L183.546 53.0061C183.394 53.4375 183.117 53.814 182.75 54.0879C182.383 54.3618 181.944 54.5208 181.487 54.5449C180.975 54.6245 180.452 54.5215 180.009 54.2541C179.527 53.978 179.149 53.5527 178.93 53.0425L171.394 36.3587L171.212 35.8256C171.146 35.5767 171.113 35.3199 171.115 35.0623C171.139 34.5152 171.374 33.9986 171.77 33.6205C171.988 33.3722 172.259 33.1759 172.563 33.0459C172.867 32.9159 173.196 32.8556 173.526 32.8693Z" fill="#2DBDB8"></path><path d="M205.731 54.9568C203.643 54.9996 201.581 54.4852 199.758 53.4665C198.115 52.5651 196.765 51.2111 195.869 49.5651C194.946 47.8502 194.478 45.927 194.512 43.9797C194.439 41.8129 194.95 39.6664 195.99 37.7641C196.893 36.1192 198.23 34.7532 199.855 33.8143C201.389 32.9092 203.138 32.4323 204.919 32.4331C206.266 32.4239 207.599 32.7135 208.821 33.2812C210.044 33.8446 211.15 34.6338 212.08 35.6075C213.03 36.6066 213.793 37.7679 214.333 39.0363C214.893 40.3413 215.178 41.7478 215.169 43.1679C215.161 43.4707 215.087 43.7682 214.954 44.04C214.82 44.3118 214.629 44.5515 214.394 44.7429C213.922 45.1459 213.318 45.3615 212.698 45.3488H197.226L196.014 41.302H210.88L209.996 42.1138V41.0233C209.941 40.2513 209.649 39.5149 209.16 38.9151C208.657 38.2887 208.019 37.7835 207.294 37.437C206.559 37.0745 205.751 36.8879 204.931 36.8918C204.165 36.8877 203.402 36.9937 202.666 37.2068C201.974 37.4174 201.346 37.7963 200.836 38.3093C200.279 38.8936 199.865 39.5984 199.625 40.3691C199.296 41.4315 199.144 42.5408 199.176 43.6525C199.136 44.948 199.45 46.2298 200.085 47.36C200.65 48.3224 201.462 49.1169 202.436 49.6621C203.372 50.1862 204.428 50.4577 205.501 50.4496C206.316 50.478 207.131 50.3964 207.924 50.2073C208.43 50.0841 208.916 49.8882 209.366 49.6257L210.347 49.032C210.774 48.8063 211.246 48.682 211.729 48.6686C212.003 48.6618 212.277 48.7121 212.531 48.8164C212.786 48.9206 213.016 49.0766 213.207 49.2744C213.583 49.6504 213.797 50.1597 213.8 50.6919C213.78 51.0893 213.666 51.4763 213.468 51.8216C213.271 52.1668 212.994 52.4606 212.661 52.679C211.777 53.372 210.776 53.9013 209.705 54.242C208.432 54.7084 207.087 54.9503 205.731 54.9568Z" fill="#2DBDB8"></path><path d="M224.838 52.0853C224.838 52.728 224.582 53.3443 224.128 53.7988C223.673 54.2532 223.057 54.5085 222.414 54.5085C222.096 54.5149 221.779 54.4546 221.485 54.3315C221.191 54.2084 220.925 54.0252 220.706 53.7937C220.481 53.5609 220.306 53.2856 220.189 52.9839C220.073 52.6821 220.018 52.3602 220.027 52.0369V27.0536C220.021 26.7286 220.08 26.4055 220.2 26.1037C220.321 25.8019 220.501 25.5275 220.73 25.2967C220.961 25.0641 221.237 24.8808 221.541 24.7579C221.845 24.635 222.171 24.5751 222.499 24.5819C222.82 24.5723 223.14 24.631 223.436 24.7543C223.733 24.8775 224 25.0624 224.22 25.2967C224.662 25.7732 224.901 26.4035 224.886 27.0536L224.838 52.0853Z" fill="#2DBDB8"></path><path d="M229.503 51.1886C229.211 50.7635 229.082 50.2473 229.139 49.7347C229.173 49.4106 229.287 49.1 229.471 48.8312C229.655 48.5624 229.903 48.344 230.194 48.196C230.598 47.9309 231.081 47.8112 231.563 47.8567C232.108 47.9269 232.61 48.1889 232.98 48.5958C233.687 49.3292 234.505 49.9466 235.403 50.4253C236.423 50.8837 237.533 51.1034 238.651 51.0675C239.098 51.0371 239.544 50.9764 239.983 50.8857C240.438 50.7866 240.857 50.5645 241.195 50.2436C241.39 50.0358 241.54 49.7893 241.634 49.52C241.727 49.2508 241.764 48.9648 241.74 48.6806C241.754 48.4138 241.706 48.1475 241.601 47.9018C241.496 47.6562 241.336 47.4377 241.134 47.2631C240.66 46.8721 240.118 46.5722 239.535 46.3786C238.813 46.1094 238.077 45.8789 237.33 45.6879C236.494 45.4456 235.634 45.167 234.761 44.8762C233.906 44.5756 233.092 44.1685 232.338 43.6646C231.604 43.1839 230.993 42.5363 230.557 41.7745C230.067 40.8684 229.828 39.8476 229.866 38.8182C229.83 37.5731 230.234 36.355 231.005 35.3772C231.785 34.4141 232.793 33.6604 233.937 33.1842C235.133 32.6763 236.419 32.4166 237.718 32.4209C238.606 32.4247 239.492 32.5262 240.359 32.7238C241.273 32.9325 242.157 33.2582 242.988 33.6931C243.809 34.125 244.528 34.7283 245.096 35.462C245.401 35.8891 245.581 36.3924 245.617 36.9159C245.635 37.2166 245.574 37.5167 245.44 37.7866C245.306 38.0564 245.104 38.2867 244.854 38.4547C244.454 38.7744 243.946 38.9264 243.436 38.8787C242.938 38.8619 242.461 38.6687 242.091 38.3335C241.604 37.7158 240.972 37.2287 240.25 36.9159C239.414 36.5519 238.508 36.3741 237.596 36.395C237.157 36.4009 236.719 36.4455 236.288 36.5282C235.839 36.6235 235.422 36.832 235.076 37.134C234.72 37.5482 234.53 38.08 234.544 38.6262C234.557 39.1724 234.773 39.6941 235.149 40.0903C235.63 40.5012 236.191 40.8066 236.797 40.9869C237.487 41.2172 238.214 41.4352 239.002 41.6533C239.789 41.8714 240.638 42.1259 241.425 42.4288C242.246 42.7212 243.021 43.1292 243.727 43.6404C244.431 44.1289 245.016 44.771 245.436 45.5183C245.892 46.4264 246.113 47.4346 246.078 48.4504C246.113 49.7335 245.683 50.9861 244.866 51.9762C244.052 52.9527 243.006 53.7106 241.825 54.1813C240.648 54.6797 239.383 54.9352 238.105 54.9325C236.475 54.9245 234.858 54.6461 233.319 54.1086C231.788 53.5317 230.46 52.516 229.503 51.1886Z" fill="#2DBDB8"></path></svg>